<?xml version="1.0" standalone="no"?>
<!DOCTYPE svg PUBLIC "-//W3C//DTD SVG 20010904//EN"
 "http://www.w3.org/TR/2001/REC-SVG-20010904/DTD/svg10.dtd">
<svg version="1.0" xmlns="http://www.w3.org/2000/svg"
 width="512.000000pt" height="512.000000pt" viewBox="0 0 512.000000 512.000000"
 preserveAspectRatio="xMidYMid meet">
<metadata>
Created by potrace 1.14, written by Peter Selinger 2001-2017
</metadata>
<g transform="translate(0.000000,512.000000) scale(0.100000,-0.100000)"
fill="#000000" stroke="none">
<path d="M3325 4675 c-71 -25 -75 -27 -75 -36 0 -5 -7 -9 -15 -9 -8 0 -15 -7
-15 -15 0 -8 -5 -15 -10 -15 -6 0 -23 -19 -38 -42 -15 -24 -33 -44 -40 -46
-22 -4 -83 -65 -108 -107 -13 -23 -26 -59 -30 -80 -4 -22 -7 -323 -7 -670 0
-401 -4 -619 -10 -600 -5 17 -15 44 -22 60 -17 37 -90 117 -99 108 -3 -3 -6
-2 -6 4 0 9 -27 21 -60 27 -3 1 -10 5 -16 9 -22 13 -148 1 -189 -18 -51 -25
-110 -79 -125 -116 -7 -16 -18 -29 -24 -29 -6 0 -26 -14 -45 -30 -18 -17 -38
-30 -43 -30 -5 0 -6 -5 -3 -10 3 -6 -1 -13 -9 -16 -9 -3 -16 -12 -16 -20 0 -8
-5 -14 -11 -14 -5 0 -8 -4 -4 -9 3 -5 1 -12 -5 -16 -6 -4 -8 -11 -5 -16 4 -5
1 -9 -4 -9 -6 0 -10 -5 -9 -11 2 -6 -3 -14 -10 -16 -8 -3 -12 1 -11 8 9 50
-88 168 -162 195 -52 20 -158 26 -178 10 -8 -6 -16 -10 -18 -8 -11 10 -98 -45
-121 -76 -31 -40 -62 -72 -120 -120 -34 -28 -71 -83 -78 -114 -1 -5 -3 -11 -4
-15 -1 -5 -1 -12 0 -18 1 -5 -2 -6 -7 -2 -4 5 -8 290 -9 635 -1 345 -2 627 -4
627 -1 0 -3 11 -6 25 -7 43 -46 110 -83 142 -89 78 -209 94 -319 43 -34 -17
-62 -33 -62 -36 0 -3 -13 -20 -30 -39 -27 -30 -57 -95 -52 -112 1 -5 -1 -8 -5
-8 -10 0 -10 -2341 0 -2357 4 -6 3 -14 -1 -17 -5 -3 -8 -18 -6 -33 2 -16 7
-59 10 -98 6 -76 11 -120 14 -120 1 0 4 -11 6 -25 4 -32 12 -74 15 -77 2 -3 2
-4 13 -53 5 -19 13 -41 20 -49 9 -12 8 -13 -2 -7 -10 6 -11 4 -4 -10 6 -11 18
-39 27 -64 29 -76 32 -82 75 -175 24 -49 71 -133 105 -185 60 -90 84 -122 147
-194 15 -17 28 -34 28 -38 0 -5 6 -8 13 -8 6 0 21 -14 32 -30 11 -16 25 -30
31 -30 7 0 14 -6 17 -14 7 -17 171 -146 186 -146 6 0 11 -5 11 -10 0 -6 16
-18 35 -27 19 -9 35 -21 35 -25 0 -5 5 -6 10 -3 6 3 10 2 10 -3 0 -14 182
-101 285 -137 28 -9 59 -21 70 -25 11 -5 45 -14 75 -21 30 -6 66 -15 80 -20
14 -4 47 -10 73 -14 27 -4 59 -9 70 -11 44 -10 334 -12 402 -2 133 18 328 75
410 121 11 6 22 12 25 13 15 3 86 37 90 43 3 3 25 17 50 30 25 14 49 31 53 38
5 7 12 11 18 8 5 -4 9 -1 9 4 0 6 6 11 14 11 8 0 17 7 20 16 4 9 9 15 12 12
16 -16 295 265 338 341 5 9 13 18 17 21 8 6 45 67 59 98 5 12 14 22 20 22 5 0
9 3 8 7 -4 13 24 73 34 73 5 0 7 4 3 9 -3 5 -1 12 5 16 6 4 8 10 5 15 -3 5 -1
11 5 15 5 3 10 15 10 25 0 10 5 20 10 22 6 2 11 18 13 36 1 17 5 32 8 32 18 0
60 234 61 345 1 51 -13 149 -23 161 -5 6 -6 13 -3 16 3 3 -2 32 -11 64 -9 33
-17 66 -19 74 -2 8 -7 29 -11 45 -4 17 -10 35 -14 40 -3 6 -7 21 -9 35 -2 14
-7 29 -13 34 -5 6 -9 20 -9 32 0 13 -4 25 -10 29 -5 3 -7 12 -3 20 3 8 1 15
-4 15 -5 0 -9 8 -10 18 -1 11 -11 47 -22 82 -11 34 -18 66 -15 71 3 5 0 9 -5
9 -6 0 -11 11 -11 24 0 14 -4 28 -10 31 -5 3 -10 12 -10 20 0 21 -91 205 -101
205 -5 0 -9 7 -9 15 0 25 -89 113 -126 125 -19 6 -34 17 -35 23 0 7 -1 435 -2
952 -2 807 -4 946 -17 980 -8 22 -19 43 -25 47 -5 4 -6 8 -2 8 14 0 -79 85
-109 99 -16 7 -37 17 -46 22 -26 13 -127 9 -173 -6z"/>
</g>
</svg>
